<?xml version="1.0" standalone="no"?>
<!DOCTYPE svg PUBLIC "-//W3C//DTD SVG 20010904//EN"
 "http://www.w3.org/TR/2001/REC-SVG-20010904/DTD/svg10.dtd">
<svg version="1.0" xmlns="http://www.w3.org/2000/svg"
 width="1000.000000pt" height="1000.000000pt" viewBox="0 0 1000.000000 1000.000000"
 preserveAspectRatio="xMidYMid meet">

<g transform="translate(0.000000,1000.000000) scale(0.100000,-0.100000)"
fill="#000000" stroke="none">
<path d="M7208 8331 c-31 -10 -71 -29 -89 -42 -19 -13 -41 -28 -50 -34 -9 -5
-29 -19 -44 -29 -15 -11 -53 -23 -84 -27 -97 -14 -140 -39 -250 -148 -56 -56
-108 -101 -114 -101 -7 0 -27 -12 -45 -27 -36 -31 -50 -81 -34 -124 13 -33 84
-59 113 -41 10 7 27 12 37 12 11 0 27 9 37 20 10 11 23 20 28 20 6 0 52 43
103 95 79 80 98 95 124 95 48 0 134 28 172 55 18 14 43 29 55 34 11 5 24 14
27 20 4 6 22 18 41 27 36 17 127 16 243 -4 57 -9 89 -36 117 -98 8 -17 38 -57
66 -88 l52 -57 -9 -57 c-11 -81 -9 -135 8 -168 9 -16 21 -45 27 -65 14 -44 15
-166 1 -174 -5 -3 -10 -16 -10 -28 0 -11 -20 -62 -45 -113 -36 -74 -55 -101
-103 -143 -33 -28 -64 -51 -70 -51 -6 0 -12 -3 -14 -7 -6 -14 -72 -60 -126
-87 -73 -37 -92 -58 -92 -104 0 -96 114 -115 234 -39 108 67 296 233 296 260
0 4 10 23 23 40 26 35 67 139 93 232 21 76 14 225 -14 306 -17 48 -19 73 -15
156 7 116 -1 138 -73 205 -25 24 -50 52 -55 63 -39 89 -128 177 -196 193 -84
20 -222 42 -264 41 -24 0 -69 -8 -101 -18z"/>
<path d="M5260 8138 c-25 -5 -70 -16 -100 -24 -30 -9 -84 -22 -119 -29 -77
-17 -104 -34 -120 -74 -18 -42 11 -101 54 -113 42 -12 136 0 214 27 36 13 89
26 117 30 51 6 52 6 97 -39 68 -67 119 -90 197 -90 40 0 79 6 100 16 62 29 74
29 126 2 51 -27 194 -73 229 -74 11 0 52 -16 92 -36 79 -39 107 -39 153 -4 34
26 34 88 0 125 -39 42 -135 85 -260 117 -63 16 -122 36 -130 43 -22 20 -97 45
-135 45 -17 0 -58 -9 -90 -20 -90 -31 -108 -28 -163 30 -69 72 -146 92 -262
68z"/>
<path d="M4405 8029 c-77 -4 -171 -13 -209 -20 -61 -11 -77 -20 -129 -63 -32
-28 -73 -64 -92 -79 -22 -20 -57 -34 -111 -47 -71 -16 -132 -40 -219 -87 -43
-24 -196 -179 -238 -243 -42 -62 -46 -100 -18 -147 43 -69 157 -51 179 30 10
35 94 130 162 182 59 45 157 85 210 85 45 0 117 40 189 106 35 33 73 63 85 67
12 5 93 12 181 17 171 9 207 19 245 67 11 14 20 39 20 55 0 40 -48 89 -87 87
-15 -1 -91 -5 -168 -10z"/>
<path d="M2329 7732 c-45 -21 -85 -55 -128 -110 -28 -34 -47 -46 -99 -62 -35
-11 -78 -32 -97 -47 -32 -28 -135 -146 -135 -156 0 -3 -18 -32 -40 -65 -21
-33 -52 -86 -67 -118 -28 -59 -28 -60 -28 -274 l0 -215 33 -47 c18 -27 36 -48
40 -48 13 0 152 -131 152 -142 0 -6 26 -50 57 -97 64 -97 151 -189 203 -215
111 -56 411 -126 541 -126 71 0 80 2 93 23 25 39 28 65 11 100 -19 41 -50 57
-130 67 -141 18 -340 66 -404 98 -51 25 -93 69 -155 162 -31 47 -61 90 -66 97
-6 7 -10 16 -10 21 0 9 -78 85 -149 145 l-33 29 4 161 c3 155 4 164 31 212 87
157 156 241 206 250 70 13 120 44 168 104 66 81 74 84 199 71 111 -11 133 -20
234 -94 86 -64 120 -86 130 -86 6 0 10 -3 10 -7 0 -13 66 -54 110 -69 35 -12
45 -12 77 1 47 20 53 29 53 88 0 47 -1 48 -57 83 -68 43 -102 66 -203 140 -97
71 -197 120 -257 128 -26 3 -95 8 -153 11 -86 4 -112 1 -141 -13z"/>
<path d="M4940 6718 c-62 -17 -109 -81 -96 -131 9 -37 44 -75 84 -93 20 -8 44
-19 52 -23 12 -6 16 -33 18 -119 3 -132 -9 -170 -75 -225 -92 -77 -102 -80
-237 -79 -138 1 -204 19 -271 72 -39 31 -89 39 -125 20 -25 -13 -43 -73 -36
-114 17 -91 230 -173 457 -175 121 -1 229 38 318 117 54 46 68 49 112 27 101
-53 292 -78 413 -55 36 7 69 16 72 21 3 5 12 9 20 9 35 0 234 167 234 196 0 6
7 17 15 24 8 6 21 36 30 65 24 84 -4 134 -76 135 -45 0 -84 -29 -104 -77 -22
-52 -139 -161 -189 -175 -88 -25 -290 -7 -337 31 -20 16 -21 26 -23 172 -1
154 -1 154 27 190 15 20 27 49 27 64 0 30 -43 95 -63 95 -7 0 -30 9 -52 20
-43 22 -133 26 -195 8z"/>
<path d="M5659 6701 c-51 -51 -31 -133 35 -145 49 -9 85 8 102 49 12 31 12 39
0 70 -25 60 -90 72 -137 26z"/>
<path d="M6889 6695 c-31 -17 -54 -65 -44 -95 9 -29 64 -90 80 -90 8 0 26 -10
41 -23 l27 -23 -17 -52 c-11 -32 -15 -63 -11 -82 9 -41 53 -86 91 -94 29 -7
32 -10 44 -77 11 -63 12 -125 7 -292 -2 -42 2 -52 26 -73 54 -47 123 -23 153
53 33 84 19 403 -22 485 -8 14 -29 36 -49 48 -33 20 -35 25 -35 76 0 103 -53
175 -167 229 -59 28 -87 30 -124 10z"/>
<path d="M4216 6541 c-43 -48 -22 -144 35 -156 82 -18 147 65 107 138 -19 32
-28 37 -79 37 -32 0 -51 -6 -63 -19z"/>
<path d="M3126 6025 c-56 -29 -90 -80 -124 -186 -21 -62 -14 -105 37 -253 12
-34 25 -105 29 -167 6 -72 14 -116 26 -133 21 -32 113 -86 147 -86 32 0 77 34
90 67 11 29 -12 90 -42 114 -17 12 -23 33 -30 105 -6 49 -16 103 -24 119 -50
111 -54 210 -11 262 57 68 57 120 3 154 -38 23 -63 24 -101 4z"/>
<path d="M6140 5712 c-127 -33 -177 -58 -246 -124 l-53 -50 -43 26 c-24 14
-50 31 -58 36 -68 43 -103 50 -249 50 -158 0 -234 -14 -356 -68 -56 -25 -144
-87 -172 -122 -22 -27 -63 -116 -63 -137 0 -36 -25 -53 -125 -89 -92 -33 -108
-36 -200 -34 -55 1 -123 2 -152 2 -61 0 -73 -7 -211 -123 -13 -10 -28 -19 -32
-19 -14 0 -28 -64 -23 -96 3 -16 15 -37 27 -46 26 -22 99 -24 116 -3 7 8 17
15 22 15 5 0 34 20 65 45 31 26 61 44 67 42 6 -3 36 -10 66 -17 50 -11 67 -10
150 10 122 28 258 69 265 80 21 34 248 3 309 -42 16 -12 50 -23 76 -26 92 -9
142 76 88 149 -28 38 -90 75 -142 84 -21 3 -46 10 -55 15 -9 5 -35 14 -58 20
-24 6 -43 16 -43 23 1 33 121 107 174 107 14 0 27 4 30 9 9 14 77 23 180 23
82 0 100 -3 140 -26 78 -43 93 -55 119 -95 17 -26 37 -41 65 -49 56 -17 92 0
136 66 77 115 132 154 238 172 146 23 250 8 328 -49 47 -35 120 -108 120 -121
0 -6 -32 -10 -81 -10 l-81 0 -54 -56 c-30 -30 -54 -59 -54 -65 0 -5 -8 -18
-17 -28 -27 -32 -64 -130 -65 -171 -1 -78 78 -121 141 -78 35 24 69 71 70 99
1 25 61 99 80 99 10 0 38 -7 64 -16 45 -15 49 -15 92 6 34 16 52 35 76 77 l32
56 71 -6 c40 -4 87 -14 106 -24 19 -9 57 -17 84 -17 42 0 52 4 77 32 59 66 29
127 -78 160 -119 37 -186 52 -235 52 -47 0 -51 2 -126 78 -90 89 -91 90 -157
124 -165 86 -261 97 -445 50z"/>
<path d="M7308 5524 c-15 -8 -32 -23 -38 -34 -23 -43 -13 -71 108 -305 23 -45
26 -62 26 -167 1 -104 3 -119 24 -147 27 -38 28 -77 2 -167 -43 -147 -58 -180
-117 -263 -56 -77 -65 -114 -41 -165 21 -47 123 -47 156 1 9 13 29 39 44 57
36 43 104 182 122 248 8 29 22 76 32 103 10 30 17 86 17 142 2 83 0 94 -22
117 -22 23 -23 32 -22 124 l2 100 -84 163 c-64 125 -91 169 -117 187 -38 26
-55 27 -92 6z"/>
<path d="M5420 5008 c-24 -53 -24 -61 -4 -104 15 -32 15 -39 -4 -110 -27 -105
-16 -139 71 -211 45 -38 30 -113 -35 -168 -39 -34 -240 -165 -252 -165 -14 0
-72 -59 -78 -80 -4 -12 -19 -14 -70 -12 -43 3 -82 -2 -114 -13 -50 -17 -69
-22 -204 -51 -93 -20 -115 -39 -115 -100 0 -94 84 -118 240 -70 44 14 116 36
160 49 66 19 84 29 102 56 12 17 24 37 26 44 3 9 8 9 18 0 19 -19 75 -16 122
7 l42 20 60 -63 c57 -61 86 -85 179 -151 224 -158 230 -160 341 -161 68 0 100
5 130 19 22 10 69 33 105 49 119 55 281 170 381 269 33 34 57 33 138 -7 108
-53 250 -95 326 -95 54 0 120 26 146 56 24 28 33 80 19 115 -15 36 -74 58
-108 40 -43 -23 -133 -13 -227 25 -50 20 -94 40 -100 44 -5 4 -23 10 -40 14
-16 4 -57 27 -89 52 -33 24 -66 44 -73 44 -7 0 -13 5 -13 10 0 6 -6 10 -14 10
-7 0 -23 21 -34 48 -17 39 -19 54 -10 87 14 55 -1 89 -52 115 -124 63 -197
-96 -127 -275 25 -64 70 -128 97 -137 6 -2 8 -10 5 -18 -8 -21 -178 -147 -240
-178 -27 -14 -57 -29 -65 -34 -8 -4 -26 -13 -40 -18 -14 -6 -37 -17 -52 -25
-14 -8 -40 -15 -57 -15 -32 0 -102 32 -122 56 -6 8 -17 14 -23 14 -7 0 -21 8
-32 18 -20 18 -79 62 -151 112 -23 16 -50 42 -60 56 -17 26 -17 27 18 56 114
99 156 162 165 254 10 91 -9 162 -56 214 -44 49 -44 49 -29 104 6 24 8 66 4
103 -6 56 -12 69 -44 103 -35 37 -42 40 -90 40 -51 0 -52 0 -71 -42z"/>
<path d="M3100 4981 c-36 -19 -80 -82 -98 -142 -6 -19 -20 -63 -31 -99 -30
-93 -28 -145 9 -203 16 -26 37 -50 45 -53 19 -8 20 -63 1 -89 -19 -28 -55 -91
-85 -150 -18 -37 -26 -70 -29 -126 -4 -75 -3 -79 39 -155 l44 -79 -2 -130 c-1
-79 -8 -159 -19 -205 -9 -41 -19 -90 -22 -108 -5 -39 3 -39 -132 3 -101 31
-155 34 -200 12 -18 -10 -52 -17 -74 -17 -23 0 -99 -9 -171 -21 -133 -21 -187
-41 -239 -88 -38 -35 -76 -117 -76 -166 0 -43 37 -162 57 -183 7 -7 13 -17 13
-22 0 -4 29 -37 64 -73 61 -62 75 -70 221 -138 11 -5 47 -15 80 -23 73 -17
159 -50 196 -77 16 -11 43 -19 68 -19 34 0 44 5 65 33 51 67 21 128 -89 178
-38 18 -88 40 -109 50 -22 11 -49 19 -60 19 -31 0 -146 41 -183 65 -46 30
-106 103 -121 147 -11 32 -11 41 3 61 13 20 32 27 106 42 49 9 134 18 189 19
63 2 104 7 114 15 22 19 84 16 136 -7 25 -10 57 -22 71 -25 29 -7 39 -36 39
-109 0 -108 95 -166 159 -97 21 23 27 50 36 169 7 95 21 190 46 310 25 125 36
277 26 369 -6 59 -17 91 -48 147 -21 40 -39 83 -39 96 0 12 14 48 31 78 67
118 90 170 96 218 9 79 -4 135 -44 187 -23 31 -33 54 -30 68 19 86 40 144 67
180 39 53 39 90 1 128 -35 34 -71 37 -121 10z"/>
<path d="M7358 3865 c-27 -18 -39 -35 -44 -60 -11 -58 4 -98 67 -190 74 -106
76 -127 29 -265 -45 -134 -37 -210 31 -288 59 -67 59 -67 59 -270 0 -168 2
-196 22 -253 28 -84 32 -248 6 -300 -70 -141 -81 -182 -64 -223 19 -44 49 -68
89 -69 41 -1 87 26 87 52 0 16 32 101 73 192 42 93 41 256 -1 379 -10 32 -17
107 -22 250 -6 205 -6 206 -38 270 -17 36 -41 77 -54 93 -21 26 -21 30 -10 86
7 32 20 74 30 92 12 24 17 58 17 114 0 94 -17 140 -81 225 -28 38 -43 69 -47
100 -11 84 -78 113 -149 65z"/>
<path d="M2975 2892 c-41 -8 -59 -35 -100 -142 -26 -70 -32 -207 -10 -266 17
-48 17 -52 -8 -198 -14 -82 -23 -154 -20 -159 3 -6 8 -94 9 -196 l4 -186 30
-27 c42 -38 87 -38 125 2 26 27 29 38 35 127 4 62 13 109 23 128 21 37 21 39
3 78 -38 84 -39 109 -2 292 17 82 15 110 -15 211 -11 35 -10 51 5 105 29 104
31 170 7 200 -21 27 -51 38 -86 31z"/>
<path d="M5400 2273 c-25 -2 -61 -11 -80 -20 -19 -9 -52 -20 -72 -25 -21 -4
-57 -13 -80 -19 -24 -5 -63 -14 -88 -18 -68 -12 -122 -34 -218 -89 -49 -28
-107 -53 -132 -57 -25 -4 -61 -16 -80 -28 -52 -31 -199 -177 -221 -219 -38
-74 -16 -138 60 -173 36 -16 47 -16 82 -6 47 14 79 58 79 111 0 28 8 44 38 72
44 43 91 68 127 68 26 0 123 47 155 75 24 20 110 53 170 64 115 22 189 41 239
61 28 11 61 20 71 20 20 0 151 -49 160 -60 3 -3 35 -25 73 -49 37 -24 67 -46
67 -50 0 -3 15 -15 32 -26 18 -11 48 -30 68 -43 19 -12 44 -26 56 -31 11 -5
32 -23 46 -40 32 -37 86 -71 115 -71 65 0 105 59 84 123 -14 42 -114 137 -176
167 -26 13 -62 35 -79 50 -84 74 -240 167 -331 198 -38 13 -106 19 -165 15z"/>
<path d="M6221 1782 c-15 -5 -34 -25 -47 -50 -19 -35 -21 -48 -12 -72 13 -39
71 -86 117 -95 40 -8 254 -25 376 -29 44 -2 106 -8 137 -14 59 -11 161 -2 199
18 10 6 25 10 34 10 9 0 52 14 95 31 67 27 81 37 95 66 21 43 12 86 -23 114
-31 24 -78 23 -152 -4 -108 -39 -162 -49 -213 -43 -29 4 -90 11 -137 15 -47 5
-100 15 -117 22 -26 11 -42 11 -78 1 -66 -18 -123 -15 -154 7 -31 23 -86 33
-120 23z"/>
<path d="M4105 1693 c-33 -13 -64 -29 -69 -34 -14 -13 -55 -11 -104 6 -41 14
-49 14 -118 -5 -50 -14 -86 -19 -107 -14 -18 4 -68 10 -112 14 -44 5 -109 15
-145 24 -54 13 -84 13 -175 5 -135 -13 -190 -35 -200 -78 -11 -50 3 -89 38
-107 31 -16 69 -16 219 2 34 4 65 -1 120 -19 100 -34 311 -46 382 -22 39 14
50 14 63 3 10 -8 43 -13 87 -13 59 0 79 4 118 27 25 15 73 34 105 42 83 19
101 31 109 71 20 108 -78 154 -211 98z"/>
</g>
</svg>
